Coordinates
version=1
nRows=16
nColumns=40
inDegrees=yes

Units are S.I. units (second, meters, Newtons, ...)
Angles are in degrees.

endheader
time	pelvis_tilt	pelvis_list	pelvis_rotation	pelvis_tx	pelvis_ty	pelvis_tz	hip_flexion_r	hip_adduction_r	hip_rotation_r	knee_angle_r	knee_angle_r_beta	ankle_angle_r	subtalar_angle_r	mtp_angle_r	hip_flexion_l	hip_adduction_l	hip_rotation_l	knee_angle_l	knee_angle_l_beta	ankle_angle_l	subtalar_angle_l	mtp_angle_l	lumbar_extension	lumbar_bending	lumbar_rotation	arm_flex_r	arm_add_r	arm_rot_r	elbow_flex_r	pro_sup_r	wrist_flex_r	wrist_dev_r	arm_flex_l	arm_add_l	arm_rot_l	elbow_flex_l	pro_sup_l	wrist_flex_l	wrist_dev_l
     53.81750000	     -7.57310786	     -4.31334397	      6.53401741	      0.89367289	      0.91288353	      0.49759022	     -2.20750962	      0.79066666	    -18.10223607	     15.36180361	     15.36180361	     17.88025879	     -1.67199062	     -2.37847133	     30.87793426	     -3.06221476	      6.39068501	     27.96830740	     27.96830740	      6.70372692	    -14.42842947	      4.73108622	     -7.41833702	      3.08762286	      4.68613408	     52.23578680	    -14.85399801	     -7.04972023	     84.64875363	     44.67604698	      0.00000000	      0.00000000	     -3.61660679	    -10.10986098	     12.90943847	     34.24334494	     43.89129192	      0.00000000	      0.00000000
     53.83628571	     -7.62897806	     -4.38846008	      6.05426296	      0.89532460	      0.91356825	      0.49405297	     -2.43875909	      0.48344548	    -17.89338903	     15.67666916	     15.67666916	     17.50321554	     -1.32992323	     -2.43497136	     30.48839282	     -3.07047931	      6.18770512	     28.24658962	     28.24658962	      7.28535125	    -14.78694152	      4.73142080	     -7.41957013	      3.22144028	      4.73987432	     51.51376055	    -14.46483818	     -6.84470068	     83.92638344	     44.69200503	      0.00000000	      0.00000000	     -2.58780378	    -10.47582896	     12.78106819	     34.69486486	     43.92727711	      0.00000000	      0.00000000
     53.85507143	     -7.70665552	     -4.28192685	      5.55118055	      0.89669252	      0.91414315	      0.49024619	     -2.44507106	     -0.23646602	    -18.27178940	     16.41746602	     16.41746602	     16.94075823	     -0.23181200	     -3.99876939	     30.15304692	     -2.85894999	      5.91842487	     28.67408854	     28.67408854	      8.69970974	    -14.85716905	      6.80513449	     -7.25355361	      3.15940532	      4.12132211	     52.07567253	    -13.46441273	     -6.44468748	     78.49945095	     44.88806153	      0.00000000	      0.00000000	     -2.30838185	    -11.09834209	     12.42243513	     36.32788799	     44.06313331	      0.00000000	      0.00000000
     53.87385714	     -7.67811926	     -4.41766795	      5.10658983	      0.89801914	      0.91493777	      0.48669267	     -2.54677640	     -0.51459811	    -17.97318094	     17.04881022	     17.04881022	     16.51313668	     -0.12219808	     -4.07919073	     29.63785419	     -2.93481621	      5.68885463	     28.82567116	     28.82567116	      9.18919603	    -15.09182699	      6.70243690	     -7.40727942	      3.42450316	      4.14402293	     50.95855904	    -13.19613186	     -6.26893789	     77.76154392	     44.90302802	      0.00000000	      0.00000000	     -1.12676543	    -11.49615917	     12.24433781	     36.76285837	     44.10483132	      0.00000000	      0.00000000
     53.89264286	     -7.79704027	     -4.20410728	      4.52452038	      0.89891075	      0.91532151	      0.48311737	     -1.85661498	     -1.44309669	    -17.59228392	     18.92263009	     18.92263009	     16.17944321	     -0.38817671	     -4.97382226	     29.20234133	     -2.74012901	      5.02446424	     28.89831968	     28.89831968	      9.80635038	    -15.07248258	      6.75331089	     -7.30546833	      3.17982674	      4.80521356	     50.04188718	    -13.93518001	     -6.42714244	     74.75034179	     45.01073975	      0.00000000	      0.00000000	      0.24136903	    -11.73159067	     11.94884469	     37.43138351	     44.17938251	      0.00000000	      0.00000000
     53.91142857	     -7.79233127	     -4.20747970	      4.07453469	      0.89973038	      0.91584443	      0.47954358	     -1.42923616	     -2.00467808	    -17.12961429	     20.34847936	     20.34847936	     14.79424038	     -1.22312315	     -8.01646193	     28.74576790	     -2.68729072	      4.65919635	     29.11024063	     29.11024063	     10.67043751	    -15.04901355	      7.50024494	     -7.23774235	      3.30430327	      3.92517991	     50.25938779	    -12.65574155	     -6.09391532	     68.96285294	     45.21226568	      0.00000000	      0.00000000	      1.12502685	    -12.08791180	     11.47238320	     37.27606943	     44.34679856	      0.00000000	      0.00000000
     53.93021429	     -7.66232424	     -4.11000897	      3.62873355	      0.90053786	      0.91650344	      0.47593584	     -0.74903895	     -2.79510779	    -16.65256583	     22.59350423	     22.59350423	     14.19306146	     -1.85389502	     -8.71914392	     28.07180536	     -2.56419473	      4.16012507	     29.16630989	     29.16630989	     11.14056397	    -15.06487380	      7.36422595	     -7.47822199	      3.28325113	      3.98485889	     48.67626527	    -12.82589866	     -6.04883274	     67.43919291	     45.25730371	      0.00000000	      0.00000000	      2.45144812	    -12.38337288	     11.24063890	     37.63435542	     44.40412919	      0.00000000	      0.00000000
     53.94900000	     -7.69136863	     -4.11712446	      3.17810719	      0.90094655	      0.91681404	      0.47251049	      0.33419555	     -3.39968790	    -15.73559548	     24.99494526	     24.99494526	     12.25310431	     -3.97827444	    -12.53691878	     27.61864326	     -2.52812428	      3.74325483	     29.24384749	     29.24384749	     11.77395914	    -15.02556609	      7.53215781	     -7.38369720	      3.44898854	      3.69950699	     48.05858963	    -12.35030996	     -6.05766061	     62.43291377	     45.43224910	      0.00000000	      0.00000000	      4.14752062	    -12.39601101	     10.98941646	     36.37635788	     44.54684813	      0.00000000	      0.00000000
     53.96778571	     -7.56897261	     -3.98092849	      2.74817363	      0.90134369	      0.91724437	      0.46905831	      1.63267730	     -4.31292575	    -15.05986033	     28.23171640	     28.23171640	     11.26933455	     -5.21203899	    -13.36103593	     26.97718698	     -2.35501850	      3.21943074	     29.27723873	     29.27723873	     12.22324371	    -15.03794043	      7.37645971	     -7.62649786	      3.39643658	      3.63930143	     46.09287402	    -12.49459371	     -6.01227315	     60.80868864	     45.47793210	      0.00000000	      0.00000000	      5.53163973	    -12.71157288	     10.81986498	     36.57341758	     44.59804494	      0.00000000	      0.00000000
     53.98657143	     -7.48150246	     -3.99012895	      2.36963680	      0.90155374	      0.91745983	      0.46573480	      3.08550783	     -4.87667277	    -13.91785346	     31.37181521	     31.37181521	      8.74614042	     -8.27405112	    -17.02405397	     26.46971695	     -2.28593924	      2.89826297	     29.44152019	     29.44152019	     12.81793144	    -15.04480146	      7.47890276	     -7.61104691	      3.55607252	      3.40784641	     44.77091465	    -12.24709581	     -6.24502251	     56.22717240	     45.63516738	      0.00000000	      0.00000000	      7.55581638	    -12.66315972	     10.95100302	     34.77133611	     44.70335118	      0.00000000	      0.00000000
     54.00535714	     -7.32385678	     -3.94979923	      1.94975869	      0.90165225	      0.91760927	      0.46256865	      4.83527624	     -5.52977948	    -12.77005141	     35.19639282	     35.19639282	      6.89155133	    -10.75217933	    -18.01963515	     25.88103301	     -2.18352008	      2.52992117	     29.59033282	     29.59033282	     13.37245125	    -15.12077188	      7.44615723	     -7.78054701	      3.68495085	      3.29273772	     42.82761835	    -12.26068816	     -6.38165540	     53.32005579	     45.72469147	      0.00000000	      0.00000000	      9.30645192	    -12.73821272	     11.09340065	     33.92513785	     44.77541653	      0.00000000	      0.00000000
     54.02414286	     -7.21043603	     -3.85986117	      1.56013335	      0.90160452	      0.91746751	      0.45947526	      6.87558654	     -6.24486767	    -11.73116491	     39.38999266	     39.38999266	      5.19106071	    -12.79534427	    -17.93852498	     25.35846527	     -1.99857891	      2.20984425	     29.73723451	     29.73723451	     13.84958090	    -15.29965883	      7.31354651	     -7.91939514	      3.76137265	      3.13238293	     40.31970193	    -12.37440149	     -6.36923198	     51.39545672	     45.77781012	      0.00000000	      0.00000000	     10.75656736	    -12.88869280	     11.07503184	     33.98051669	     44.81139982	      0.00000000	      0.00000000
     54.04292857	     -6.93783766	     -3.75913465	      1.17931604	      0.90149105	      0.91725836	      0.45654835	      8.85968762	     -6.87301921	    -10.63040034	     43.60486567	     43.60486567	      3.35182941	    -14.80189502	    -17.44579645	     24.75520986	     -1.78949005	      1.96050662	     30.04732807	     30.04732807	     14.39424782	    -15.54813367	      7.16285084	     -8.25940950	      3.83896594	      2.86873974	     37.78196550	    -12.41171217	     -6.36696002	     49.36887377	     45.83559062	      0.00000000	      0.00000000	     12.26086150	    -13.10490475	     11.08485604	     33.91796878	     44.84069778	      0.00000000	      0.00000000
     54.06171429	     -6.78008252	     -3.77861026	      0.77746622	      0.90121998	      0.91671122	      0.45391011	     11.08444148	     -7.18164638	     -9.39566386	     47.78409867	     47.78409867	      1.64055831	    -16.88882790	    -15.82469038	     24.34375957	     -1.69255893	      1.80778499	     30.44735673	     30.44735673	     14.96604817	    -15.94885676	      7.13895571	     -8.37395582	      4.08076331	      2.89011083	     35.16297803	    -12.63385364	     -6.49070533	     46.48237494	     45.92988928	      0.00000000	      0.00000000	     13.99124378	    -13.08944353	     11.24418496	     33.51722487	     44.85953966	      0.00000000	      0.00000000
     54.08050000	     -6.41966539	     -3.80699805	      0.39628800	      0.90096384	      0.91623531	      0.45155425	     13.27593483	     -7.34609882	     -8.16998162	     52.20213822	     52.20213822	      1.93924486	    -17.31872557	     -8.84659401	     23.79573495	     -1.61029876	      1.70935211	     31.01822758	     31.01822758	     15.85507136	    -16.23399318	      7.72148568	     -8.60755500	      4.32123426	      2.76585736	     33.32675312	    -12.39703082	     -7.42819343	     41.25200391	     46.14511125	      0.00000000	      0.00000000	     16.32078650	    -13.00677466	     12.05953948	     31.29558343	     44.83909965	      0.00000000	      0.00000000
     54.09928571	     -6.12875227	     -3.81301569	     -0.00771907	      0.90062803	      0.91533029	      0.44941728	     15.52842353	     -7.45000051	     -7.03490912	     56.26595527	     56.26595527	      2.18900300	    -17.81367445	     -2.86988671	     23.38206857	     -1.49750268	      1.62571728	     31.69154735	     31.69154735	     16.72241512	    -16.62139834	      8.15601628	     -8.87162542	      4.55869076	      2.61385960	     30.65655128	    -12.24265390	     -8.53978855	     38.37166626	     46.27408805	      0.00000000	      0.00000000	     17.75537545	    -13.23811372	     12.21308671	     31.63288838	     44.89623066	      0.00000000	      0.00000000
